<?xml version="1.0" encoding="utf-8"?>
<!-- Generator: Adobe Illustrator 14.0.0, SVG Export Plug-In . SVG Version: 6.00 Build 43363)  -->
<!DOCTYPE svg PUBLIC "-//W3C//DTD SVG 1.1//EN" "http://www.w3.org/Graphics/SVG/1.1/DTD/svg11.dtd">
<svg version="1.1" id="fila" xmlns="http://www.w3.org/2000/svg" xmlns:xlink="http://www.w3.org/1999/xlink" x="0px" y="0px"
	 width="400px" height="300px" viewBox="0 0 400 300" enable-background="new 0 0 400 300" xml:space="preserve">
<path id="path2205" fill="#CC393C" d="M114.943,99.407c8.473,0,15.343,6.867,15.343,15.342s-6.869,15.343-15.343,15.343H44.774
	c-8.475,0-15.345-6.868-15.345-15.343s6.87-15.342,15.345-15.342H114.943z"/>
<path id="path2207" fill="#3D3D6A" d="M107.89,139.611c8.475,0,15.344,6.869,15.344,15.344c0,8.475-6.869,15.343-15.344,15.343
	H67.951c-3.406,0.013-6.194,2.706-6.325,6.078v19.998c0,8.474-6.869,15.342-15.341,15.342c-8.476,0-15.345-6.868-15.345-15.342
	v-34.032c0-12.553,10.177-22.731,22.729-22.731H107.89z"/>
<path id="path2209" fill="#3D3D6A" d="M137.253,111.516c0-8.474,6.869-15.343,15.342-15.343c8.476,0,15.345,6.869,15.345,15.343
	v84.966c0,8.475-6.869,15.345-15.345,15.345c-8.473,0-15.342-6.87-15.342-15.345V111.516z"/>
<path id="path2211" fill="#3D3D6A" d="M326.095,181.395l6.168-0.018c1.26,0,2.283-1.023,2.283-2.281
	c0.004-0.32-0.049-0.605-0.162-0.875l-22.928-38.527l-35.818,62.018c-2.766,4.796-7.734,7.531-12.891,7.668
	c-0.152,0.021-0.305,0.034-0.465,0.034h-58.291c-12.554,0-22.73-10.178-22.73-22.73v-75.167c0-8.474,6.869-15.343,15.345-15.343
	c8.473,0,15.344,6.869,15.344,15.343V172.4c0.01,3.408,2.703,6.197,6.076,6.324h32.607c0.84-0.258,3.404-1.131,4.186-2.344
	l40.957-70.901c3.107-5.336,8.889-8.928,15.506-8.928c6.621,0,12.402,3.598,15.498,8.945l39.908,67.006
	c2.973,3.87,4.738,8.709,4.738,13.964c0,12.674-10.273,22.946-22.943,22.946h-46.523c-7.738,0-14.01-6.274-14.01-14.013
	c0-7.735,6.271-14.008,14.01-14.008h24.135V181.395z"/>
</svg>
